<svg xmlns="http://www.w3.org/2000/svg" width="120" height="120" viewBox="0 0 120 120">
  <rect width="120" height="120" rx="24" fill="#1a2a4a"/>
  <path d="M60 20c-5 0-10 5-10 10s5 10 10 10 10-5 10-10-5-10-10-10zM40 40c-5 0-10 5-10 10s5 10 10 10 10-5 10-10-5-10-10-10zM80 40c-5 0-10 5-10 10s5 10 10 10 10-5 10-10-5-10-10-10zM50 70c-5 0-10 5-10 10s5 10 10 10 10-5 10-10-5-10-10-10zM70 70c-5 0-10 5-10 10s5 10 10 10 10-5 10-10-5-10-10-10z" fill="#d9aa59"/>
  <path d="M30 50h60M45 50v15M75 50v15M45 65l-5 5h10M75 65l-5 5h10M60 35v35" stroke="#d9aa59" stroke-width="2" fill="none"/>
</svg>
